<svg xmlns="http://www.w3.org/2000/svg" width="256" height="256" viewBox="0 0 100 100"><rect width="100" height="100" rx="50" fill="#1876f2"></rect><path d="M32.25 70.68Q28.25 70.68 25.09 69.26Q21.93 67.84 20.13 65.31Q18.33 62.79 18.27 59.48L18.27 59.48L23.90 59.48Q24.19 62.33 26.25 64.27Q28.31 66.21 32.25 66.21L32.25 66.21Q36.02 66.21 38.20 64.33Q40.37 62.44 40.37 59.48L40.37 59.48Q40.37 57.16 39.10 55.71Q37.82 54.26 35.91 53.51Q33.99 52.75 30.74 51.89L30.74 51.89Q26.74 50.84 24.33 49.80Q21.93 48.75 20.22 46.52Q18.51 44.29 18.51 40.52L18.51 40.52Q18.51 37.21 20.19 34.66Q21.87 32.11 24.91 30.71Q27.96 29.32 31.90 29.32L31.90 29.32Q37.59 29.32 41.21 32.16Q44.84 35.01 45.30 39.70L45.30 39.70L39.50 39.70Q39.21 37.38 37.07 35.62Q34.92 33.85 31.38 33.85L31.38 33.85Q28.08 33.85 25.99 35.56Q23.90 37.27 23.90 40.34L23.90 40.34Q23.90 42.55 25.15 43.94Q26.39 45.33 28.22 46.06Q30.05 46.78 33.35 47.71L33.35 47.71Q37.36 48.81 39.79 49.88Q42.23 50.96 43.97 53.19Q45.71 55.42 45.71 59.25L45.71 59.25Q45.71 62.21 44.14 64.82Q42.58 67.43 39.50 69.05Q36.43 70.68 32.25 70.68L32.25 70.68ZM73.72 49.45Q75.93 49.80 77.75 51.25Q79.58 52.70 80.65 54.84Q81.73 56.99 81.73 59.42L81.73 59.42Q81.73 62.50 80.16 64.96Q78.59 67.43 75.61 68.85Q72.62 70.27 68.56 70.27L68.56 70.27L53.48 70.27L53.48 29.84L67.98 29.84Q72.10 29.84 75.00 31.21Q77.90 32.57 79.35 34.89Q80.80 37.21 80.80 40.11L80.80 40.11Q80.80 43.71 78.85 46.06Q76.91 48.41 73.72 49.45L73.72 49.45ZM58.76 34.20L58.76 47.30L67.63 47.30Q71.34 47.30 73.37 45.56Q75.40 43.82 75.40 40.75L75.40 40.75Q75.40 37.67 73.37 35.94Q71.34 34.20 67.52 34.20L67.52 34.20L58.76 34.20ZM68.10 65.92Q72.04 65.92 74.24 64.06Q76.45 62.21 76.45 58.90L76.45 58.90Q76.45 55.54 74.13 53.60Q71.81 51.65 67.92 51.65L67.92 51.65L58.76 51.65L58.76 65.92L68.10 65.92Z" fill="#fff"></path></svg>